<mxfile host="app.diagrams.net" modified="2023-03-17T12:28:29.431Z" agent="5.0 (X11; Linux x86_64) AppleWebKit/537.36 (KHTML, like Gecko) Chrome/109.0.0.0 Safari/537.36" etag="QTOYCdkqzcpDAeuHIY81" version="20.8.17" type="github">
  <diagram name="第 1 页" id="5Az96HWmE1BWc7lFskWz">
    <mxGraphModel dx="1172" dy="610" grid="1" gridSize="10" guides="1" tooltips="1" connect="1" arrows="1" fold="1" page="1" pageScale="1" pageWidth="827" pageHeight="1169" math="0" shadow="0">
      <root>
        <mxCell id="0" />
        <mxCell id="1" parent="0" />
        <mxCell id="rPTRtMF9d79Sc1CpP3I9-4" value="" style="ellipse;whiteSpace=wrap;html=1;fillColor=#dae8fc;strokeColor=#6c8ebf;" vertex="1" parent="1">
          <mxGeometry x="390" y="430" width="200" height="120" as="geometry" />
        </mxCell>
        <mxCell id="rPTRtMF9d79Sc1CpP3I9-7" value="本地json文件" style="rounded=0;whiteSpace=wrap;html=1;strokeColor=#00CCCC;strokeWidth=4;" vertex="1" parent="1">
          <mxGeometry x="310" y="630" width="80" height="30" as="geometry" />
        </mxCell>
        <mxCell id="rPTRtMF9d79Sc1CpP3I9-8" value="Mysql数据库" style="rounded=0;whiteSpace=wrap;html=1;strokeColor=#00CCCC;strokeWidth=4;" vertex="1" parent="1">
          <mxGeometry x="490" y="580" width="80" height="30" as="geometry" />
        </mxCell>
        <mxCell id="rPTRtMF9d79Sc1CpP3I9-10" value="fusion" style="ellipse;whiteSpace=wrap;html=1;fillColor=#dae8fc;strokeColor=#6c8ebf;" vertex="1" parent="1">
          <mxGeometry x="200" y="430" width="50" height="60" as="geometry" />
        </mxCell>
        <mxCell id="rPTRtMF9d79Sc1CpP3I9-11" value="segmentation" style="ellipse;whiteSpace=wrap;html=1;fillColor=#dae8fc;strokeColor=#6c8ebf;rotation=0;" vertex="1" parent="1">
          <mxGeometry x="129.18" y="476.21" width="70" height="55" as="geometry" />
        </mxCell>
        <mxCell id="rPTRtMF9d79Sc1CpP3I9-12" value="lidar" style="ellipse;whiteSpace=wrap;html=1;fillColor=#dae8fc;strokeColor=#6c8ebf;rotation=5;" vertex="1" parent="1">
          <mxGeometry x="210" y="510" width="80" height="50" as="geometry" />
        </mxCell>
        <mxCell id="rPTRtMF9d79Sc1CpP3I9-13" value="multitask" style="ellipse;whiteSpace=wrap;html=1;fillColor=#dae8fc;strokeColor=#6c8ebf;" vertex="1" parent="1">
          <mxGeometry x="270" y="440" width="50" height="60" as="geometry" />
        </mxCell>
        <mxCell id="rPTRtMF9d79Sc1CpP3I9-15" value="" style="ellipse;whiteSpace=wrap;html=1;fillColor=none;strokeColor=#6c8ebf;strokeWidth=2;" vertex="1" parent="1">
          <mxGeometry x="90" y="420" width="270" height="180" as="geometry" />
        </mxCell>
        <mxCell id="rPTRtMF9d79Sc1CpP3I9-17" value="&lt;font style=&quot;font-size: 14px;&quot;&gt;感知模块&lt;/font&gt;" style="text;html=1;strokeColor=none;fillColor=none;align=center;verticalAlign=middle;whiteSpace=wrap;rounded=0;fontSize=15;" vertex="1" parent="1">
          <mxGeometry x="140" y="550" width="60" height="30" as="geometry" />
        </mxCell>
        <mxCell id="rPTRtMF9d79Sc1CpP3I9-22" value="" style="endArrow=classic;html=1;rounded=0;strokeWidth=3;fontSize=14;entryX=0.587;entryY=-0.127;entryDx=0;entryDy=0;entryPerimeter=0;" edge="1" parent="1" target="rPTRtMF9d79Sc1CpP3I9-7">
          <mxGeometry width="50" height="50" relative="1" as="geometry">
            <mxPoint x="300" y="590" as="sourcePoint" />
            <mxPoint x="350" y="550" as="targetPoint" />
          </mxGeometry>
        </mxCell>
        <mxCell id="rPTRtMF9d79Sc1CpP3I9-23" value="&lt;font style=&quot;font-size: 19px;&quot;&gt;...&lt;/font&gt;" style="text;html=1;strokeColor=none;fillColor=none;align=center;verticalAlign=middle;whiteSpace=wrap;rounded=0;fontSize=14;" vertex="1" parent="1">
          <mxGeometry x="280" y="510" width="60" height="28" as="geometry" />
        </mxCell>
        <mxCell id="rPTRtMF9d79Sc1CpP3I9-24" value="&lt;font style=&quot;font-size: 12px;&quot;&gt;perception_benchmark_test&lt;/font&gt;" style="text;html=1;strokeColor=none;fillColor=none;align=center;verticalAlign=middle;whiteSpace=wrap;rounded=0;fontSize=19;" vertex="1" parent="1">
          <mxGeometry x="414" y="470" width="160" height="30" as="geometry" />
        </mxCell>
        <mxCell id="rPTRtMF9d79Sc1CpP3I9-26" value="" style="endArrow=classic;html=1;rounded=0;strokeWidth=3;fontSize=14;" edge="1" parent="1" target="rPTRtMF9d79Sc1CpP3I9-4">
          <mxGeometry width="50" height="50" relative="1" as="geometry">
            <mxPoint x="370" y="620" as="sourcePoint" />
            <mxPoint x="426.96000000000026" y="630" as="targetPoint" />
          </mxGeometry>
        </mxCell>
        <mxCell id="rPTRtMF9d79Sc1CpP3I9-27" value="" style="endArrow=classic;html=1;rounded=0;strokeWidth=3;fontSize=14;entryX=0.603;entryY=-0.091;entryDx=0;entryDy=0;entryPerimeter=0;exitX=0.541;exitY=1.018;exitDx=0;exitDy=0;exitPerimeter=0;" edge="1" parent="1" source="rPTRtMF9d79Sc1CpP3I9-4" target="rPTRtMF9d79Sc1CpP3I9-8">
          <mxGeometry width="50" height="50" relative="1" as="geometry">
            <mxPoint x="380" y="630" as="sourcePoint" />
            <mxPoint x="451.45150094053406" y="552.4547001332162" as="targetPoint" />
          </mxGeometry>
        </mxCell>
        <mxCell id="rPTRtMF9d79Sc1CpP3I9-28" value="" style="endArrow=classic;html=1;rounded=0;strokeWidth=3;fontSize=12;" edge="1" parent="1">
          <mxGeometry width="50" height="50" relative="1" as="geometry">
            <mxPoint x="570" y="600" as="sourcePoint" />
            <mxPoint x="620" y="580" as="targetPoint" />
          </mxGeometry>
        </mxCell>
        <mxCell id="rPTRtMF9d79Sc1CpP3I9-29" value="Superset可视化展示" style="ellipse;whiteSpace=wrap;html=1;strokeColor=#6c8ebf;strokeWidth=2;fontSize=12;fillColor=#dae8fc;" vertex="1" parent="1">
          <mxGeometry x="620" y="490" width="120" height="155" as="geometry" />
        </mxCell>
      </root>
    </mxGraphModel>
  </diagram>
</mxfile>
